<?xml version="1.0" encoding="UTF-8" standalone="no"?>
<!-- Created with Inkscape (http://www.inkscape.org/) -->

<svg
   width="1024"
   height="1024"
   viewBox="0 0 1024 1024"
   version="1.1"
   id="svg1"
   inkscape:version="1.3.2 (091e20ef0f, 2023-11-25)"
   sodipodi:docname="icon-1024x1024.svg"
   xmlns:inkscape="http://www.inkscape.org/namespaces/inkscape"
   xmlns:sodipodi="http://sodipodi.sourceforge.net/DTD/sodipodi-0.dtd"
   xmlns="http://www.w3.org/2000/svg"
   xmlns:svg="http://www.w3.org/2000/svg">
  <sodipodi:namedview
     id="namedview1"
     pagecolor="#ffffff"
     bordercolor="#111111"
     borderopacity="1"
     inkscape:showpageshadow="false"
     inkscape:pageopacity="0"
     inkscape:pagecheckerboard="false"
     inkscape:deskcolor="#d1d1d1"
     inkscape:document-units="px"
     showborder="false"
     showgrid="true"
     inkscape:zoom="0.81347656"
     inkscape:cx="512"
     inkscape:cy="512"
     inkscape:window-width="1916"
     inkscape:window-height="1037"
     inkscape:window-x="1366"
     inkscape:window-y="0"
     inkscape:window-maximized="1"
     inkscape:current-layer="layer2">
    <inkscape:grid
       id="grid1"
       units="px"
       originx="0"
       originy="0"
       spacingx="16"
       spacingy="16"
       empcolor="#0099e5"
       empopacity="0.30196078"
       color="#0099e5"
       opacity="0.14901961"
       empspacing="8"
       dotted="false"
       gridanglex="30"
       gridanglez="30"
       visible="true" />
  </sodipodi:namedview>
  <defs
     id="defs1">
    <filter
       style="color-interpolation-filters:sRGB;"
       inkscape:label="Blur"
       id="filter21"
       x="-0.02045034"
       y="-0.098768786"
       width="1.0409007"
       height="1.1975376">
      <feGaussianBlur
         stdDeviation="7.54219 7.52692"
         result="blur"
         id="feGaussianBlur21" />
    </filter>
  </defs>
  <g
     inkscape:label="Background"
     inkscape:groupmode="layer"
     id="layer1"
     style="fill:#1a1a1a">
    <rect
       style="fill:#1a1a1a;stroke-width:32;stroke-linejoin:round"
       id="rect1"
       width="1024"
       height="1024"
       x="0"
       y="0"
       inkscape:label="bg-rect"
       ry="256" />
  </g>
  <g
     inkscape:groupmode="layer"
     id="layer2"
     inkscape:label="Yoke">
    <path
       id="path12"
       style="display:inline;fill:#f9f9f9;stroke:none;stroke-width:5.91748;stroke-linecap:round;stroke-linejoin:round;stroke-opacity:1;filter:url(#filter21)"
       d="m 180.62123,170.70167 c -36.42868,3.84967 -81.831179,9.25406 -102.569618,39.44985 -11.911466,17.34345 -11.061341,45.22213 0,63.11976 12.366955,20.01015 39.641878,33.02156 63.119768,31.55988 37.85696,-2.35689 58.3769,-52.12818 94.67965,-63.11976 17.61999,-5.33491 37.6965,-5.61334 55.22979,0 51.75301,16.56893 83.67723,71.25513 132.70983,94.67964 17.68732,8.44983 37.22795,13.12551 56.64945,15.77995 10.42306,1.42457 21.03992,0 31.55988,0 10.51996,0 21.13683,1.42457 31.55989,0 19.4215,-2.65444 38.96213,-7.33012 56.64944,-15.77995 49.03261,-23.42451 80.95683,-78.11071 132.70984,-94.67964 17.53328,-5.61334 37.6098,-5.33491 55.22979,0 36.30275,10.99158 56.82269,60.76287 94.67965,63.11976 23.4779,1.46169 50.75282,-11.54972 63.11979,-31.55988 11.06137,-17.89763 11.91146,-45.77631 0,-63.11976 -20.73842,-30.1958 -66.14096,-35.60018 -102.56964,-39.44985 -50.30874,-5.31646 -99.69456,17.52993 -149.90944,23.66991 -60.26917,7.36936 -120.75128,15.77994 -181.46932,15.77994 -60.71803,0 -121.20014,-8.41058 -181.46931,-15.77994 -50.21488,-6.13998 -99.6007,-28.98637 -149.90944,-23.66991 z"
       sodipodi:nodetypes="sssssssssssssssssssss"
       inkscape:label="yoke-path" />
    <path
       id="path3"
       style="display:inline;fill:#ffccaa;stroke:none;stroke-width:5.91748;stroke-linecap:round;stroke-linejoin:round;stroke-opacity:1"
       d="m 180.62123,170.70167 c -36.42868,3.84967 -81.831179,9.25406 -102.569618,39.44985 -11.911466,17.34345 -11.061341,45.22213 0,63.11976 12.366955,20.01015 39.641878,33.02156 63.119768,31.55988 37.85696,-2.35689 58.3769,-52.12818 94.67965,-63.11976 17.61999,-5.33491 37.6965,-5.61334 55.22979,0 51.75301,16.56893 83.67723,71.25513 132.70983,94.67964 17.68732,8.44983 37.22795,13.12551 56.64945,15.77995 10.42306,1.42457 21.03992,0 31.55988,0 10.51996,0 21.13683,1.42457 31.55989,0 19.4215,-2.65444 38.96213,-7.33012 56.64944,-15.77995 49.03261,-23.42451 80.95683,-78.11071 132.70984,-94.67964 17.53328,-5.61334 37.6098,-5.33491 55.22979,0 36.30275,10.99158 56.82269,60.76287 94.67965,63.11976 23.4779,1.46169 50.75282,-11.54972 63.11979,-31.55988 11.06137,-17.89763 11.91146,-45.77631 0,-63.11976 -20.73842,-30.1958 -66.14096,-35.60018 -102.56964,-39.44985 -50.30874,-5.31646 -99.69456,17.52993 -149.90944,23.66991 -60.26917,7.36936 -120.75128,15.77994 -181.46932,15.77994 -60.71803,0 -121.20014,-8.41058 -181.46931,-15.77994 -50.21488,-6.13998 -99.6007,-28.98637 -149.90944,-23.66991 z"
       sodipodi:nodetypes="sssssssssssssssssssss"
       inkscape:label="yoke-path" />
  </g>
  <g
     inkscape:groupmode="layer"
     id="layer3"
     inkscape:label="ASL_Letters"
     style="display:none">
    <path
       id="path4"
       style="fill:#e9c6af;stroke:none;stroke-width:12;stroke-linecap:round;stroke-linejoin:round;stroke-opacity:1"
       d="M 0,384 V 896 H 64 V 672 h 128 v 224 h 64 V 384 Z m 64,64 H 192 V 624 H 64 Z" />
    <path
       style="fill:#de8787;stroke:none;stroke-width:12;stroke-linecap:round;stroke-linejoin:round;stroke-opacity:1"
       d="M 256,384 V 672 H 448 V 832 H 256 v 64 H 512.2476 L 512,608 H 320 V 448 h 192 l 1.2479,-64 z"
       id="path5"
       sodipodi:nodetypes="ccccccccccccc" />
    <path
       style="fill:#f4d7d7;stroke:none;stroke-width:12;stroke-linecap:round;stroke-linejoin:round;stroke-opacity:1"
       d="m 768,384 v 512 h 257.6705 V 833.52131 L 833.67047,832 830.32953,384 Z"
       id="path6"
       sodipodi:nodetypes="ccccccc" />
    <path
       style="fill:#e9afaf;stroke:none;stroke-width:12;stroke-linecap:round;stroke-linejoin:round;stroke-opacity:1"
       d="M 508.64526,384 V 896 H 768 V 832 H 572.64526 V 672 h 112 v -64 h -112 V 448 L 768,447.78296 V 384 Z"
       id="path7"
       sodipodi:nodetypes="ccccccccccccc" />
  </g>
  <g
     inkscape:groupmode="layer"
     id="g11"
     inkscape:label="ASL_Letters copy">
    <g
       id="g12"
       transform="translate(-0.83525,-28)">
      <path
         id="path8"
         style="fill:#e9c6af;stroke:#000000;stroke-width:10.6675;stroke-linecap:round;stroke-linejoin:round;stroke-opacity:1"
         d="m 49.6705,416 v 448 h 57.8013 V 668 h 115.6026 v 196 h 57.8013 V 416 Z m 57.8013,56 H 223.0744 V 626 H 107.4718 Z" />
      <path
         style="fill:#de8787;stroke:#000000;stroke-width:10.6675;stroke-linecap:round;stroke-linejoin:round;stroke-opacity:1"
         d="M 280.8757,416 V 668 H 454.2796 V 808 H 280.8757 v 56 H 512.30452 L 512.0809,612 H 338.677 V 472 h 173.4039 l 1.12703,-56 z"
         id="path9"
         sodipodi:nodetypes="ccccccccccccc" />
      <path
         style="fill:#e9afaf;stroke:#000000;stroke-width:10.6675;stroke-linecap:round;stroke-linejoin:round;stroke-opacity:1"
         d="M 743.2861,416 V 864 H 976 V 809.33115 L 802.59607,808 799.57872,416 Z"
         id="path10"
         sodipodi:nodetypes="ccccccc" />
      <path
         style="fill:#f4d7d7;stroke:#000000;stroke-width:10.6675;stroke-linecap:round;stroke-linejoin:round;stroke-opacity:1"
         d="M 509.05108,416 V 864 H 743.2861 V 808 H 566.85238 V 668 H 668.00465 V 612 H 566.85238 V 472 L 743.2861,471.81009 V 416 Z"
         id="path11"
         sodipodi:nodetypes="ccccccccccccc" />
    </g>
  </g>
</svg>
